{"title":"PassionHD - Heavenly Workout (Sensi) [12-16-2011].mpg","uid":15738693,"size":498894848,"categoryP":"porn","categoryS":"hd___movies","magnet":"?xt=urn:btih:bc24723dc8951160c01861532fa9773c82247e7d&amp;dn=PassionHD+-+Heavenly+Workout+%28Sensi%29+%5B12-16-2011%5D.mpg&amp;tr=udp%3A%2F%2Ftracker.leechers-paradise.org%3A6969&amp;tr=udp%3A%2F%2Fzer0day.ch%3A1337&amp;tr=udp%3A%2F%2Fopen.demonii.com%3A1337&amp;tr=udp%3A%2F%2Ftracker.coppersurfer.tk%3A6969&amp;tr=udp%3A%2F%2Fexodus.desync.com%3A6969","seeders":1,"leechers":0,"uploader":"freemetoo","files":1,"time":1472870522,"description":"General\r\nFormat                                   : MPEG-PS\r\nFile size                                : 476 MiB\r\nDuration                                 : 26mn 43s\r\nOverall bit rate mode                    : Variable\r\nOverall bit rate                         : 2 490 Kbps\r\n\r\nVideo\r\nID                                       : 224 (0xE0)\r\nFormat                                   : MPEG Video\r\nFormat version                           : Version 1\r\nFormat settings, BVOP                    : No\r\nFormat settings, Matrix                  : Default\r\nFormat settings, GOP                     : N=12\r\nDuration                                 : 26mn 43s\r\nBit rate mode                            : Variable\r\nBit rate                                 : 2 312 Kbps\r\nWidth                                    : 1 280 pixels\r\nHeight                                   : 720 pixels\r\nDisplay aspect ratio                     : 16:9\r\nFrame rate                               : 23.976 (24000/1001) fps\r\nColor space                              : YUV\r\nChroma subsampling                       : 4:2:0\r\nBit depth                                : 8 bits\r\nScan type                                : Progressive\r\nCompression mode                         : Lossy\r\nBits/(Pixel*Frame)                       : 0.105\r\nTime code of first frame                 : 00:00:00:00\r\nTime code source                         : Group of pictures header\r\nGOP, Open/Closed                         : Open\r\nStream size                              : 442 MiB (93%)\r\n\r\nAudio\r\nID                                       : 192 (0xC0)\r\nFormat                                   : MPEG Audio\r\nFormat version                           : Version 1\r\nFormat profile                           : Layer 2\r\nDuration                                 : 26mn 42s\r\nBit rate mode                            : Constant\r\nBit rate                                 : 128 Kbps\r\nChannel(s)                               : 2 channels\r\nSampling rate                            : 48.0 KHz\r\nCompression mode                         : Lossy\r\nStream size                              : 24.5 MiB (5%)","torrent":{"xt":"urn:btih:bc24723dc8951160c01861532fa9773c82247e7d","amp;dn":"PassionHD+-+Heavenly+Workout+%28Sensi%29+%5B12-16-2011%5D.mpg","amp;tr":["udp%3A%2F%2Ftracker.leechers-paradise.org%3A6969","udp%3A%2F%2Fzer0day.ch%3A1337","udp%3A%2F%2Fopen.demonii.com%3A1337","udp%3A%2F%2Ftracker.coppersurfer.tk%3A6969","udp%3A%2F%2Fexodus.desync.com%3A6969"],"infoHash":"bc24723dc8951160c01861532fa9773c82247e7d","infoHashBuffer":{"type":"Buffer","data":[188,36,114,61,200,149,17,96,192,24,97,83,47,169,119,60,130,36,126,125]},"announce":[],"urlList":[]}}